ply
format ascii 1.0
comment VCGLIB generated
comment TextureFile dummy.png
element vertex 30
property float x
property float y
property float z
property float nx
property float ny
property float nz
property uchar red
property uchar green
property uchar blue
property uchar alpha
property float texture_u
property float texture_v
element face 56
property list uchar int vertex_indices
end_header
-27960.37 163.5393 1925.325 0.68124 -0.001421735 0.7320588 203 255 255 255 -27960.37 163.5393
-27913.59 789.3011 1925.325 0.6475554 0.455305 0.6110398 183 255 255 255 -27913.59 789.3011
-28847.81 1074.995 1925.325 -0.02189117 0.7819973 0.6228973 173 255 255 255 -28847.81 1074.995
-28397.61 -830.1609 1925.325 0.03996968 -0.7327022 0.6793747 236 255 255 255 -28397.61 -830.1609
-29509.25 -82.61104 1925.325 -0.7511689 -0.01247171 0.6599923 211 255 255 255 -29509.25 -82.61104
-29353.91 917.5278 1925.325 -0.5778033 0.5475249 0.6052766 178 255 255 255 -29353.91 917.5278
-28666.53 999.2171 627.8973 -0.02462516 0.9996179 0.01255584 184 255 255 255 -28666.53 999.2171
-29047.27 946.7966 798.4305 -0.1034004 0.9944908 0.01721659 185 255 255 255 -29047.27 946.7966
-29442.36 928.9265 374.9861 -0.753411 0.6543007 -0.06528824 187 255 255 255 -29442.36 928.9265
-29167.29 928.043 -1033.038 -0.625403 0.7574524 -0.1874485 191 255 255 255 -29167.29 928.043
-29414.92 270.1536 269.8453 -0.9970969 0.001762381 -0.07612321 202 255 255 255 -29414.92 270.1536
-29440.11 -801.6634 1925.325 -0.5741691 -0.583856 0.5739704 235 255 255 255 -29440.11 -801.6634
-29396.08 -870.4149 884.5293 -0.606465 -0.7821013 -0.1432401 230 255 255 255 -29396.08 -870.4149
-29490.29 -520.4258 281.8177 -0.9038986 -0.4170275 -0.09516048 219 255 255 255 -29490.29 -520.4258
-29132.33 -759.7267 -776.8951 -0.6000022 -0.7965533 -0.07416508 221 255 255 255 -29132.33 -759.7267
-28609.3 -803.1994 710.7057 -0.08391851 -0.9961393 -0.02577037 227 255 255 255 -28609.3 -803.1994
-28302.63 -819.621 -3200.467 -0.4272949 -0.7339079 -0.5280136 218 255 255 255 -28302.63 -819.621
-27895.25 -795.965 -3344.703 0.5121199 -0.6009446 -0.6136766 217 255 255 255 -27895.25 -795.965
-28027.18 -890.4659 410.832 0.6050853 -0.7956332 -0.02897621 228 255 255 255 -28027.18 -890.4659
-28018.11 -403.6847 306.0316 0.9934624 -0.1141206 0.002985639 217 255 255 255 -28018.11 -403.6847
-27816.29 -759.903 1925.325 0.6750461 -0.4916835 0.5500547 234 255 255 255 -27816.29 -759.903
-27883.88 110.6173 271.2927 0.9942273 -0.1034741 0.02837641 205 255 255 255 -27883.88 110.6173
-27917.46 766.1161 -3643.008 0.3563159 0.5191147 -0.7768906 197 255 255 255 -27917.46 766.1161
-27918.64 873.9099 -1769.719 0.6593775 0.7505941 -0.04277629 193 255 255 255 -27918.64 873.9099
-27920.09 1006.153 528.391 0.6671458 0.7444785 0.02585357 185 255 255 255 -27920.09 1006.153
-28125.88 865.55 -1590.075 0.2000335 0.9797691 -0.006262959 193 255 255 255 -28125.88 865.55
-28321.68 994.4904 -1920.806 -0.001513702 0.9948002 -0.1018351 192 255 255 255 -28321.68 994.4904
-28909.38 480.1269 -3006.618 -0.7926134 0.3427882 -0.5042423 200 255 255 255 -28909.38 480.1269
-29408.22 149.4826 -1532.014 -0.960287 0.0683582 -0.2705109 205 255 255 255 -29408.22 149.4826
-29458.51 -47.31854 -885.0185 -0.9904412 -0.1336644 -0.03405913 208 255 255 255 -29458.51 -47.31854
3 0 1 2 
3 3 0 2 
3 4 3 2 
3 5 4 2 
3 6 5 2 
3 6 7 5 
3 7 8 5 
3 7 6 8 
3 6 9 8 
3 8 9 10 
3 10 11 8 
3 11 4 8 
3 12 11 10 
3 13 12 10 
3 13 10 14 
3 14 15 13 
3 15 14 16 
3 15 16 17 
3 18 15 17 
3 18 17 19 
3 18 19 20 
3 20 19 0 
3 19 21 0 
3 19 17 21 
3 17 22 21 
3 21 22 23 
3 24 21 23 
3 24 23 25 
3 6 24 25 
3 26 6 25 
3 25 22 26 
3 27 26 22 
3 22 16 27 
3 27 16 28 
3 26 27 28 
3 26 28 9 
3 29 9 28 
3 28 14 29 
3 24 6 1 
3 21 24 1 
3 25 23 22 
3 15 18 20 
3 3 15 20 
3 15 3 11 
3 22 17 16 
3 16 14 28 
3 29 14 10 
3 15 12 13 
3 12 15 11 
3 10 9 29 
3 9 6 26 
3 4 5 8 
3 4 11 3 
3 3 20 0 
3 6 2 1 
3 0 21 1 
