ply
format ascii 1.0
comment VCGLIB generated
comment TextureFile dummy.png
element vertex 302
property float x
property float y
property float z
property float nx
property float ny
property float nz
property uchar red
property uchar green
property uchar blue
property uchar alpha
property float texture_u
property float texture_v
element face 240
property list uchar int vertex_indices
end_header
-23661.38 -1329.031 -235.6836 -0.596721 -0.7292091 -0.3349299 227 255 255 255 0.0153929 0.984552
-23995.53 -1464.277 499.6874 -0.7277366 -0.5340318 -0.4303597 230 255 255 255 0.0151041 0.982982
-24261.68 -1418.624 787.5615 -0.4649226 -0.6786723 -0.5685516 230 255 255 255 0.0152016 0.982367
-23810.82 1530.208 1135.027 -0.6083801 0.738278 -0.2912374 184 255 255 255 0.0233225 0.975057
-24007.43 1316.81 393.6916 -0.360803 0.9167814 -0.1712688 190 255 255 255 0.0229028 0.97664
-24095.15 1330.207 1200.5 -0.251626 0.9653751 -0.06881285 187 255 255 255 0.0227155 0.97492
-24125.24 -123.4085 105.953 -0.6491341 -0.1231902 -0.7506325 211 255 255 255 0.0179669 0.983822
-24238.36 -378.6464 497.4131 -0.8933228 0.002520547 -0.4494084 214 255 255 255 0.017422 0.982987
-24824.8 216.4648 1200.5 -0.8987006 -0.05627486 -0.4349373 205 255 255 255 0.0186926 0.981485
-23820.96 -968.5075 -1265.751 -0.767661 -0.5867777 -0.25766 220 255 255 255 0.0161626 0.986751
-23676.52 -692.4041 -1847.92 -0.9586431 -0.04127762 -0.2816017 217 255 255 255 0.0167521 0.987994
-24411.33 -829.723 522.0137 -0.8781348 0.3118328 -0.3628218 221 255 255 255 0.0164589 0.982934
-24654.61 -1144.396 1200.501 -0.9555089 0.02092085 -0.2942196 227 255 255 255 0.0157871 0.981486
-24769.22 -839.1533 1200.5 -0.8647999 -0.06425511 -0.4979883 222 255 255 255 0.0164388 0.981486
-22899.92 -967.5399 -1414.377 0.7394325 -0.5458079 -0.3941235 221 255 255 255 0.0267303 0.980497
-23254.22 -1317.211 -1122.77 -0.1053834 -0.9135962 -0.3927294 225 255 255 255 0.0274868 0.979874
-23127.75 -563.6074 -2264.401 0.8652638 -0.3124468 -0.3920402 216 255 255 255 0.0272167 0.982312
-23506.49 1243.653 -516.3187 0.5839456 0.4541371 -0.6728798 194 255 255 255 0.0302398 0.968876
-23532.89 739.0953 -59.96605 0.001594696 -0.188168 -0.9821356 200 255 255 255 0.0302962 0.967902
-23878.1 754.6241 -737.7584 0.2335013 -0.1893521 -0.9537416 200 255 255 255 0.0310332 0.969349
-22823.19 1751.963 1200.5 -0.2321084 0.9138104 -0.3332811 181 255 255 255 0.0254311 0.974926
-22564.26 1547.852 347.3327 -0.2955523 0.7430025 -0.6004966 188 255 255 255 0.025984 0.976739
-23018.34 1699.946 794.8892 0.1282663 0.8889233 -0.4397306 184 255 255 255 0.0250145 0.975783
-23488.05 -992.7048 -2005.394 -0.3034363 -0.8483495 -0.4338543 220 255 255 255 0.0245919 0.987659
-23400.43 -470.3905 -2942.733 -0.06065661 0.1031692 -0.9928126 214 255 255 255 0.0234767 0.98966
-20612.44 354.5118 1200.5 0.8200603 0.1456166 -0.5534412 205 255 255 255 0.0307938 0.985065
-21032.49 617.973 -86.81008 0.6503941 0.6838881 -0.3305824 203 255 255 255 0.0302313 0.987795
-21091.72 868.6807 718.8977 0.6697686 0.673804 -0.3120871 198 255 255 255 0.029696 0.986075
-23391.77 1623.441 273.0196 -0.119047 0.923443 -0.3648025 187 255 255 255 0.0242172 0.976897
-22930.55 -2060.682 1200.501 -0.2166652 -0.9095469 -0.3546558 243 255 255 255 0.0267957 0.974922
-23348.11 -1781.023 610.5126 -0.106202 -0.9375221 -0.3313209 236 255 255 255 0.0276872 0.976174
-22748.39 -735.1104 -1114.376 0.9851575 0.113716 -0.1285825 219 255 255 255 0.0240419 0.985756
-23899.32 -1760.98 479.1101 -0.4974389 -0.7089824 -0.4998986 234 255 255 255 0.035137 0.971088
-24071.09 -2076.613 1200.501 -0.4206757 -0.7805327 -0.462386 243 255 255 255 0.0344631 0.969551
-21510.87 631.1722 -758.2637 0.4508397 0.725716 -0.5196921 203 255 255 255 0.0208615 0.978604
-21674.01 522.3065 -1153.306 0.287831 0.7996211 -0.5270288 205 255 255 255 0.0205131 0.979448
-21944.34 438.1777 -709.3815 -0.7134221 0.633642 -0.2992104 205 255 255 255 0.019936 0.9785
-23912.17 -102.1321 181.6366 -0.108384 0.6472117 -0.7545661 211 255 255 255 0.0180124 0.983661
-23163.42 29.00249 -3257.286 -0.0241464 -0.09466667 -0.9952162 210 255 255 255 0.0274227 0.990332
-23522.43 -30.23458 -1277.529 -0.9806628 0.1956896 -0.002477404 210 255 255 255 0.0272962 0.986105
-23431.27 78.67362 -112.2574 -0.8739237 0.3455224 -0.3418651 208 255 255 255 0.0275288 0.983617
-22887.08 80.12115 -406.5023 0.9761801 0.09198112 -0.1964993 209 255 255 255 0.0223013 0.984245
-23053.51 -105.9869 -1395.405 0.9859619 0.1012459 -0.1327723 211 255 255 255 0.0226987 0.986356
-22922.54 294.8456 -1801.265 0.990671 -0.05832058 -0.1231655 207 255 255 255 0.0218429 0.987223
-24730.36 -560.0433 1200.5 -0.8218457 0.02261886 -0.569261 217 255 255 255 0.0170347 0.981486
-22088.44 699.8832 146.3729 -0.7174137 -0.03919759 -0.6955439 201 255 255 255 0.0372325 0.982211
-22400.85 740.6543 3.228917 0.4129429 -0.8271734 -0.381133 200 255 255 255 0.0371454 0.982516
-22330.8 1037.401 -205.4399 0.6187 0.1095808 -0.7779475 197 255 255 255 0.0365119 0.982962
-21552.96 1509.583 1200.5 0.5744226 0.6660299 -0.4758602 186 255 255 255 0.0176535 0.976935
-21475.21 1249.889 903.39 0.5891915 0.7122872 -0.381445 191 255 255 255 0.0178195 0.977555
-21996.07 1089.563 -166.6904 -0.0724301 0.6984139 -0.7120196 196 255 255 255 0.0167074 0.97984
-22777.47 812.6799 -1419.242 0.4770871 0.2339959 -0.8471327 201 255 255 255 0.0342779 0.990184
-22638.47 573.8358 324.5747 0.8268162 -0.2983897 -0.4768004 202 255 255 255 0.0339811 0.986461
-22973.18 704.9195 -1488.459 0.1852068 0.9084044 -0.3748332 202 255 255 255 0.0346957 0.990332
-23012.56 -320.1973 -1925.453 0.9064432 0.2550883 -0.3365868 213 255 255 255 0.023156 0.987488
-23667.75 269.7491 319.7696 -0.2113427 -0.2126708 -0.9539945 205 255 255 255 0.0279367 0.982694
-21099.43 356.4818 -593.4922 0.7498675 0.4206417 -0.510646 206 255 255 255 0.025841 0.972026
-21339.53 479.6943 -505.4835 0.5860181 0.6662807 -0.4611429 205 255 255 255 0.0253284 0.971838
-21655.29 167.7102 -1215.464 0.6961663 0.4590489 -0.55193 209 255 255 255 0.0195407 0.975366
-22226.78 -1356.268 1049.539 0.1871977 -0.2791163 -0.941834 232 255 255 255 0.0253681 0.981136
-22627.7 -1083.035 613.2131 0.9205402 -0.2100039 -0.3293997 226 255 255 255 0.0247847 0.982068
-22301.77 -723.5041 1200.5 0.1286906 -0.2889696 -0.9486492 222 255 255 255 0.0240171 0.980825
-21815.07 -95.88832 -1768.631 -0.009263163 -0.2741622 -0.9616389 212 255 255 255 0.0201035 0.976547
-21997.53 209.5346 -1610.66 -0.4766824 0.4239415 -0.7700958 208 255 255 255 0.0194514 0.97621
-23696.49 581.5531 71.75164 0.03044872 -0.6296164 -0.7763093 201 255 255 255 0.0306455 0.96762
-24192.9 506.9659 -723.4455 -0.3251726 -0.3367752 -0.8836545 203 255 255 255 0.0317053 0.969318
-23123.76 -1892.544 1200.501 -0.2791463 -0.9573302 -0.0748091 240 255 255 255 0.0272082 0.974921
-21135.33 -409.1306 764.3605 0.8473266 -0.01839053 -0.5307536 217 255 255 255 0.0263665 0.973145
-20529.75 -1024.25 1200.501 0.8824348 -0.2158265 -0.4180045 228 255 255 255 0.0276798 0.972232
-20858.99 -782.8619 545.0518 0.7233458 0.0884076 -0.6848029 222 255 255 255 0.0271645 0.973613
-23095.11 433.1926 -2478.124 0.06701306 0.900838 -0.4289524 206 255 255 255 0.0215475 0.988668
-23283.44 1221.821 402.5181 0.6667119 0.3590109 -0.6531511 192 255 255 255 0.0197824 0.968632
-24171.7 1102.728 -294.4937 -0.7524035 0.5483314 -0.3649954 195 255 255 255 0.0225521 0.978109
-24784.36 1026.077 1200.5 -0.7574671 0.09680133 -0.6456571 191 255 255 255 0.021244 0.974917
-20920.39 -35.93059 49.32788 0.9220174 -0.3237662 -0.2122721 211 255 255 255 0.0316274 0.987504
-21295.87 -196.2395 -130.6471 0.7005236 -0.6730773 -0.2371364 213 255 255 255 0.0319697 0.987889
-21593.8 -415.0756 -917.1763 0.207629 -0.9337364 -0.2915932 215 255 255 255 0.0216939 0.972717
-21473.82 -29.48125 -1274.822 0.8398349 0.02031852 -0.5424615 211 255 255 255 0.0208707 0.97348
-22482.08 -1640.038 892.0897 0.7383748 -0.2935876 -0.6071318 235 255 255 255 0.036488 0.979501
-22729.52 -1580.937 518.646 0.3606217 -0.9115703 -0.1974632 233 255 255 255 0.0370163 0.980298
-22830.79 -1551.216 -198.0477 0.6909118 -0.6597478 -0.2955906 230 255 255 255 0.0372325 0.981828
-20784.74 907.4131 1200.5 0.7254702 0.4725166 -0.500421 196 255 255 255 0.0192937 0.976938
-21350.9 1317.342 1200.5 0.5811343 0.7055095 -0.4056345 189 255 255 255 0.0180849 0.976936
-22606.32 56.60954 515.3909 0.2359528 -0.3740678 -0.8968833 209 255 255 255 0.0223515 0.982277
-22536.88 -244.7618 696.4484 0.3184015 -0.5812196 -0.7488686 213 255 255 255 0.022995 0.98189
-22635.78 -977.0725 122.4586 0.9429234 -0.2898531 -0.1639536 223 255 255 255 0.0245585 0.983116
-21932.37 1913.703 1200.5 0.3749907 0.7313462 -0.5696619 179 255 255 255 0.0168435 0.976933
-22703.12 1897.095 1200.5 -0.3931617 0.8267336 -0.402412 178 255 255 255 0.0151979 0.97693
-21536.29 -1670.616 1200.501 -0.007110357 -0.8132198 -0.5819133 238 255 255 255 0.0325285 0.971002
-21668.35 -1230.358 438.4487 -0.2238364 -0.4452401 -0.8669825 228 255 255 255 0.0328105 0.972614
-22620.9 1097.212 -626.7515 0.3473918 0.8340098 -0.4286568 197 255 255 255 0.0360016 0.983714
-22972.78 1099.019 259.6066 -0.05102924 0.931914 -0.3590716 194 255 255 255 0.0352504 0.981821
-22677.35 1174.6 585.1803 -0.6363081 0.5815551 -0.5068586 192 255 255 255 0.0358811 0.981126
-22920.42 -529.8763 -576.73 0.9744006 0.1723315 -0.1443787 216 255 255 255 0.0236037 0.984608
-23488.4 -997.8181 -1370.779 -0.478476 -0.8703898 -0.1161138 221 255 255 255 0.0279867 0.980404
-23949.09 -815.9241 -456.5496 -0.9281946 -0.2926437 -0.2298141 220 255 255 255 0.0164884 0.985023
-22369.6 682.8557 560.9317 -0.2045511 -0.3500968 -0.9141068 200 255 255 255 0.0334071 0.985956
-23382.98 371.3342 -592.156 -0.9531348 0.1962373 -0.2302716 205 255 255 255 0.0281536 0.984641
-24460.74 1360.194 1200.5 -0.4425585 0.8471038 -0.294206 186 255 255 255 0.0219349 0.974942
-20835.32 -88.98383 969.7184 0.7627783 -0.05276168 -0.6445041 212 255 255 255 0.0317407 0.985539
-21377.53 -495.0753 113.2509 0.6356295 -0.6671814 -0.3883866 217 255 255 255 0.0331165 0.982482
-21714.37 -570.3132 -80.814 -0.2418576 -0.9337716 -0.263772 218 255 255 255 0.0338356 0.982896
-22500.34 -2145.907 1200.501 0.2633797 -0.6650266 -0.6988353 245 255 255 255 0.036314 0.977672
-21718.12 -742.2796 449.7805 -0.4354039 -0.6199564 -0.6527461 221 255 255 255 0.0338436 0.981763
-21980.61 -700.2579 904.6326 -0.6726204 -0.4078836 -0.6174243 221 255 255 255 0.0344041 0.980792
-24134.07 -1968.091 1200.501 -0.6093415 -0.5619264 -0.5594119 241 255 255 255 0.0346949 0.969551
-22188.99 -39.27128 -336.0438 -0.8992418 -0.3483395 -0.2646201 211 255 255 255 0.0174014 0.970594
-22263.22 -1867.105 1200.501 0.5048442 -0.3688153 -0.7804535 240 255 255 255 0.0229181 0.978979
-23437.28 -2034.215 1200.501 0.2038108 -0.9101687 -0.3606302 242 255 255 255 0.0278776 0.97492
-23742.11 1630.712 1200.5 -0.5249267 0.8151669 -0.2448571 182 255 255 255 0.0234692 0.974922
-23053.38 1265.607 847.2553 0.4861204 0.3639067 -0.7945181 190 255 255 255 0.0350783 0.980566
-23843.42 1279.388 -522.5116 -0.245536 0.7868992 -0.5661288 194 255 255 255 0.0232529 0.978596
-20650.9 -1047.162 880.2896 0.7997441 -0.3197149 -0.5081257 227 255 255 255 0.0306382 0.971671
-21042.17 -1570.916 1200.501 0.3765225 -0.756689 -0.5344648 236 255 255 255 0.0314736 0.971004
-24737.53 -1540.423 1200.501 -0.7372854 -0.3561175 -0.5740998 233 255 255 255 0.0239306 0.970997
-24496.32 -1098.058 395.4223 -0.8288676 -0.2441087 -0.503378 224 255 255 255 0.0234156 0.972716
-23282.08 1754.337 1200.5 -0.1571237 0.9767936 -0.1455555 180 255 255 255 0.0244514 0.974924
-22497.59 418.632 417.8788 0.05918026 0.309088 -0.9491904 204 255 255 255 0.0215786 0.982485
-22861.55 449.7669 -197.7995 0.9370608 -0.1852027 -0.2960017 204 255 255 255 0.0215121 0.983799
-24374.28 -1932.972 1200.501 -0.2721711 -0.5654771 -0.7785619 240 255 255 255 0.0231551 0.970999
-24567.02 1246.943 1200.5 -0.6555443 0.634386 -0.4096536 188 255 255 255 0.0367855 0.97559
-22073.51 1536.031 736.746 0.4488542 0.7159081 -0.5347949 187 255 255 255 0.0165421 0.977911
-23847.23 -421.431 -507.4106 -0.3357341 0.9080762 -0.2503604 215 255 255 255 0.017083 0.973685
-20499.76 130.5197 1200.5 0.4702901 0.1876831 -0.8623238 209 255 255 255 0.0277235 0.969382
-20391.78 -255.7083 1200.5 0.6490391 0.01800798 -0.7605419 215 255 255 255 0.027954 0.970206
-24437.99 831.9695 466.5847 -0.9431373 0.0474768 -0.3289953 197 255 255 255 0.0200067 0.983052
-24772.73 1050.609 1200.5 -9.775268e-07 4.634691e-07 -1 191 255 255 255 0.0197032 0.981051
-24785.36 1036.913 1200.5 0 0 -1 191 255 255 255 0.0196762 0.98108
-22958.68 1792.05 1200.5 0.09787136 0.9672875 -0.2340429 180 255 255 255 0.0251419 0.974925
-20671.31 -549.0884 920.9905 0.5545089 -0.1476499 -0.8189746 219 255 255 255 0.0273572 0.970833
-23133.21 532.6534 -1263.901 -0.7487476 0.6520075 -0.1194289 204 255 255 255 0.0328713 0.97625
-20571.32 -486.2614 1200.5 0.9048216 -0.3479107 -0.2454711 219 255 255 255 0.0275707 0.970699
-22657.04 -639.5128 248.7803 0.9537238 0.1381772 -0.2670545 219 255 255 255 0.0238378 0.982846
-23304.08 875.8579 -66.56992 0.1458834 0.6529511 -0.7432179 198 255 255 255 0.0355104 0.987775
-22263.53 170.5284 336.3351 -0.3184048 0.4882067 -0.8125716 208 255 255 255 0.0301822 0.973476
-21947.21 -274.1927 -218.7244 -0.6262863 -0.7336355 -0.263713 214 255 255 255 0.0303679 0.981372
-22029.77 -1690.231 1200.501 0.1093257 -0.3551679 -0.9283877 238 255 255 255 0.0335821 0.971053
-22262.74 -409.4647 488.715 -0.5355632 -0.7657987 -0.3559837 216 255 255 255 0.0310416 0.979862
-24723.32 812.6292 1200.5 -0.8581051 0.3990764 -0.3231002 195 255 255 255 0.0199654 0.981486
-24672.98 864.9377 1200.5 -0.9492521 0.06828829 -0.3070133 194 255 255 255 0.0200771 0.981486
-23254.22 -1317.211 -1122.77 -0.1053834 -0.9135962 -0.3927294 225 255 255 255 0.0252847 0.985774
-23127.75 -563.6074 -2264.401 0.8652638 -0.3124468 -0.3920402 216 255 255 255 0.0236757 0.988212
-23506.49 1243.653 -516.3187 0.5839456 0.4541371 -0.6728798 194 255 255 255 0.0239723 0.978583
-22899.92 -967.5399 -1414.377 0.7394325 -0.5458079 -0.3941235 221 255 255 255 0.0245381 0.986397
-23995.53 -1464.277 499.6874 -0.7277366 -0.5340318 -0.4303597 230 255 255 255 0.0357705 0.971044
-23400.43 -470.3905 -2942.733 -0.06065661 0.1031692 -0.9928126 214 255 255 255 0.0172261 0.990332
-23522.43 -30.23458 -1277.529 -0.9806628 0.1956896 -0.002477404 210 255 255 255 0.0225369 0.986105
-23912.17 -102.1321 181.6366 -0.108384 0.6472117 -0.7545661 211 255 255 255 0.0271427 0.982989
-21032.49 617.973 -86.81008 0.6503941 0.6838881 -0.3305824 203 255 255 255 0.025984 0.970944
-21339.53 479.6943 -505.4835 0.5860181 0.6662807 -0.4611429 205 255 255 255 0.0188746 0.97385
-21674.01 522.3065 -1153.306 0.287831 0.7996211 -0.5270288 205 255 255 255 0.0187836 0.975233
-23661.38 -1329.031 -235.6836 -0.596721 -0.7292091 -0.3349299 227 255 255 255 0.0360593 0.972614
-23163.42 29.00249 -3257.286 -0.0241464 -0.09466667 -0.9952162 210 255 255 255 0.0224105 0.990332
-23018.34 1699.946 794.8892 0.1282663 0.8889233 -0.4397306 184 255 255 255 0.0187616 0.967794
-23506.49 1243.653 -516.3187 0.5839456 0.4541371 -0.6728798 194 255 255 255 0.0197358 0.970594
-21135.33 -409.1306 764.3605 0.8473266 -0.01839053 -0.5307536 217 255 255 255 0.0324242 0.985978
-21295.87 -196.2395 -130.6471 0.7005236 -0.6730773 -0.2371364 213 255 255 255 0.0212267 0.971038
-21091.72 868.6807 718.8977 0.6697686 0.673804 -0.3120871 198 255 255 255 0.0186383 0.977949
-22564.26 1547.852 347.3327 -0.2955523 0.7430025 -0.6004966 188 255 255 255 0.0154944 0.978742
-22226.78 -1356.268 1049.539 0.1871977 -0.2791163 -0.941834 232 255 255 255 0.0340027 0.97131
-22777.47 812.6799 -1419.242 0.4770871 0.2339959 -0.8471327 201 255 255 255 0.0356673 0.985406
-22973.18 704.9195 -1488.459 0.1852068 0.9084044 -0.3748332 202 255 255 255 0.0352495 0.985553
-22729.52 -1580.937 518.646 0.3606217 -0.9115703 -0.1974632 233 255 255 255 0.0263665 0.97637
-22830.79 -1551.216 -198.0477 0.6909118 -0.6597478 -0.2955906 230 255 255 255 0.0265827 0.9779
-23488.05 -992.7048 -2005.394 -0.3034363 -0.8483495 -0.4338543 220 255 255 255 0.027986 0.981759
-23820.96 -968.5075 -1265.751 -0.767661 -0.5867777 -0.25766 220 255 255 255 0.0286968 0.98018
-22088.44 699.8832 146.3729 -0.7174137 -0.03919759 -0.6955439 201 255 255 255 0.0328068 0.986841
-22400.85 740.6543 3.228917 0.4129429 -0.8271734 -0.381133 200 255 255 255 0.0334738 0.987147
-23095.11 433.1926 -2478.124 0.06701306 0.900838 -0.4289524 206 255 255 255 0.0282857 0.988668
-21510.87 631.1722 -758.2637 0.4508397 0.725716 -0.5196921 203 255 255 255 0.0177434 0.981103
-24192.9 506.9659 -723.4455 -0.3251726 -0.3367752 -0.8836545 203 255 255 255 0.0193128 0.985593
-21593.8 -415.0756 -917.1763 0.207629 -0.9337364 -0.2915932 215 255 255 255 0.0335782 0.984682
-22482.08 -1640.038 892.0897 0.7383748 -0.2935876 -0.6071318 235 255 255 255 0.0259739 0.981472
-22830.79 -1551.216 -198.0477 0.6909118 -0.6597478 -0.2955906 230 255 255 255 0.0257842 0.9838
-22930.55 -2060.682 1200.501 -0.2166652 -0.9095469 -0.3546558 243 255 255 255 0.0372325 0.97767
-22729.52 -1580.937 518.646 0.3606217 -0.9115703 -0.1974632 233 255 255 255 0.0368033 0.979118
-24261.68 -1418.624 787.5615 -0.4649226 -0.6786723 -0.5685516 230 255 255 255 0.035868 0.97043
-22536.88 -244.7618 696.4484 0.3184015 -0.5812196 -0.7488686 213 255 255 255 0.0169626 0.968389
-22606.32 56.60954 515.3909 0.2359528 -0.3740678 -0.8968833 209 255 255 255 0.0176061 0.968776
-22482.08 -1640.038 892.0897 0.7383748 -0.2935876 -0.6071318 235 255 255 255 0.0224332 0.979627
-22500.34 -2145.907 1200.501 0.2633797 -0.6650266 -0.6988353 245 255 255 255 0.0235133 0.978978
-23899.32 -1760.98 479.1101 -0.4974389 -0.7089824 -0.4998986 234 255 255 255 0.0288641 0.976454
-22823.19 1751.963 1200.5 -0.2321084 0.9138104 -0.3332811 181 255 255 255 0.0149415 0.97693
-20858.99 -782.8619 545.0518 0.7233458 0.0884076 -0.6848029 222 255 255 255 0.0310825 0.972387
-21815.07 -95.88832 -1768.631 -0.009263163 -0.2741622 -0.9616389 212 255 255 255 0.0210124 0.974535
-21668.35 -1230.358 438.4487 -0.2238364 -0.4452401 -0.8669825 228 255 255 255 0.0323567 0.969236
-22301.77 -723.5041 1200.5 0.1286906 -0.2889696 -0.9486492 222 255 255 255 0.0334389 0.96762
-21980.61 -700.2579 904.6326 -0.6726204 -0.4078836 -0.6174243 221 255 255 255 0.0334885 0.968241
-24261.68 -1418.624 787.5615 -0.4649226 -0.6786723 -0.5685516 230 255 255 255 0.0229146 0.971878
-21135.33 -409.1306 764.3605 0.8473266 -0.01839053 -0.5307536 217 255 255 255 0.0216812 0.969127
-21377.53 -495.0753 113.2509 0.6356295 -0.6671814 -0.3883866 217 255 255 255 0.0218647 0.970517
-22226.78 -1356.268 1049.539 0.1871977 -0.2791163 -0.941834 232 255 255 255 0.0218274 0.979291
-24007.43 1316.81 393.6916 -0.360803 0.9167814 -0.1712688 190 255 255 255 0.0369347 0.977288
-24784.36 1026.077 1200.5 -0.7574671 0.09680133 -0.6456571 191 255 255 255 0.036314 0.975565
-22330.8 1037.401 -205.4399 0.6187 0.1095808 -0.7779475 197 255 255 255 0.0159928 0.979923
-22627.7 -1083.035 613.2131 0.9205402 -0.2100039 -0.3293997 226 255 255 255 0.021244 0.980222
-22638.47 573.8358 324.5747 0.8268162 -0.2983897 -0.4768004 202 255 255 255 0.0212472 0.982684
-22973.18 704.9195 -1488.459 0.1852068 0.9084044 -0.3748332 202 255 255 255 0.0209673 0.986555
-22729.52 -1580.937 518.646 0.3606217 -0.9115703 -0.1974632 233 255 255 255 0.0223071 0.980424
-23912.17 -102.1321 181.6366 -0.108384 0.6472117 -0.7545661 211 255 255 255 0.0164012 0.972214
-24125.24 -123.4085 105.953 -0.6491341 -0.1231902 -0.7506325 211 255 255 255 0.0164467 0.972375
-23843.42 1279.388 -522.5116 -0.245536 0.7868992 -0.5661288 194 255 255 255 0.0232113 0.968966
-23878.1 754.6241 -737.7584 0.2335013 -0.1893521 -0.9537416 200 255 255 255 0.0231372 0.970086
-24171.7 1102.728 -294.4937 -0.7524035 0.5483314 -0.3649954 195 255 255 255 0.0225104 0.969343
-20835.32 -88.98383 969.7184 0.7627783 -0.05276168 -0.6445041 212 255 255 255 0.027007 0.96985
-24171.7 1102.728 -294.4937 -0.7524035 0.5483314 -0.3649954 195 255 255 255 0.0205848 0.984677
-24784.36 1026.077 1200.5 -0.7574671 0.09680133 -0.6456571 191 255 255 255 0.0204212 0.981486
-22620.9 1097.212 -626.7515 0.3473918 0.8340098 -0.4286568 197 255 255 255 0.0363842 0.983861
-24784.36 1026.077 1200.5 -0.7574671 0.09680133 -0.6456571 191 255 255 255 0.0196783 0.981103
-21091.72 868.6807 718.8977 0.6697686 0.673804 -0.3120871 198 255 255 255 0.0180441 0.971236
-21510.87 631.1722 -758.2637 0.4508397 0.725716 -0.5196921 203 255 255 255 0.0185512 0.97439
-21135.33 -409.1306 764.3605 0.8473266 -0.01839053 -0.5307536 217 255 255 255 0.0263665 0.970534
-20612.44 354.5118 1200.5 0.8200603 0.1456166 -0.5534412 205 255 255 255 0.0274829 0.968904
-23095.11 433.1926 -2478.124 0.06701306 0.900838 -0.4289524 206 255 255 255 0.032659 0.978842
-23382.98 371.3342 -592.156 -0.9531348 0.1962373 -0.2302716 205 255 255 255 0.0325269 0.974815
-21473.82 -29.48125 -1274.822 0.8398349 0.02031852 -0.5424615 211 255 255 255 0.0316137 0.990332
-23661.38 -1329.031 -235.6836 -0.596721 -0.7292091 -0.3349299 227 255 255 255 0.0283561 0.97798
-23696.49 581.5531 71.75164 0.03044872 -0.6296164 -0.7763093 201 255 255 255 0.0149415 0.972448
-23667.75 269.7491 319.7696 -0.2113427 -0.2126708 -0.9539945 205 255 255 255 0.0156072 0.971919
-24192.9 506.9659 -723.4455 -0.3251726 -0.3367752 -0.8836545 203 255 255 255 0.0151008 0.974146
-23532.89 739.0953 -59.96605 0.001594696 -0.188168 -0.9821356 200 255 255 255 0.0289388 0.983505
-23696.49 581.5531 71.75164 0.03044872 -0.6296164 -0.7763093 201 255 255 255 0.0286024 0.983224
-24496.32 -1098.058 395.4223 -0.8288676 -0.2441087 -0.503378 224 255 255 255 0.015886 0.983204
-24737.53 -1540.423 1200.501 -0.7372854 -0.3561175 -0.5740998 233 255 255 255 0.0149415 0.981486
-22972.78 1099.019 259.6066 -0.05102924 0.931914 -0.3590716 194 255 255 255 0.0362178 0.987079
-23283.44 1221.821 402.5181 0.6667119 0.3590109 -0.6531511 192 255 255 255 0.0355545 0.986774
-23488.05 -992.7048 -2005.394 -0.3034363 -0.8483495 -0.4338543 220 255 255 255 0.0161109 0.98833
-23506.49 1243.653 -516.3187 0.5839456 0.4541371 -0.6728798 194 255 255 255 0.0350783 0.988735
-23522.43 -30.23458 -1277.529 -0.9806628 0.1956896 -0.002477404 210 255 255 255 0.0354029 0.975485
-23400.43 -470.3905 -2942.733 -0.06065661 0.1031692 -0.9928126 214 255 255 255 0.0344631 0.97904
-23431.27 78.67362 -112.2574 -0.8739237 0.3455224 -0.3418651 208 255 255 255 0.0356354 0.972997
-24192.9 506.9659 -723.4455 -0.3251726 -0.3367752 -0.8836545 203 255 255 255 0.0224651 0.970615
-22564.26 1547.852 347.3327 -0.2955523 0.7430025 -0.6004966 188 255 255 255 0.0159037 0.969457
-22677.35 1174.6 585.1803 -0.6363081 0.5815551 -0.5068586 192 255 255 255 0.0151067 0.968949
-23018.34 1699.946 794.8892 0.1282663 0.8889233 -0.4397306 184 255 255 255 0.0162284 0.968501
-20784.74 907.4131 1200.5 0.7254702 0.4725166 -0.500421 196 255 255 255 0.0296134 0.985064
-21944.34 438.1777 -709.3815 -0.7134221 0.633642 -0.2992104 205 255 255 255 0.0307536 0.975709
-21997.53 209.5346 -1610.66 -0.4766824 0.4239415 -0.7700958 208 255 255 255 0.0302655 0.977633
-21997.53 209.5346 -1610.66 -0.4766824 0.4239415 -0.7700958 208 255 255 255 0.0198224 0.980424
-21099.43 356.4818 -593.4922 0.7498675 0.4206417 -0.510646 206 255 255 255 0.0307896 0.988877
-23163.42 29.00249 -3257.286 -0.0241464 -0.09466667 -0.9952162 210 255 255 255 0.0286586 0.971847
-23012.56 -320.1973 -1925.453 0.9064432 0.2550883 -0.3365868 213 255 255 255 0.0283366 0.969004
-23522.43 -30.23458 -1277.529 -0.9806628 0.1956896 -0.002477404 210 255 255 255 0.0294251 0.96762
-22188.99 -39.27128 -336.0438 -0.8992418 -0.3483395 -0.2646201 211 255 255 255 0.0308841 0.981623
-21815.07 -95.88832 -1768.631 -0.009263163 -0.2741622 -0.9616389 212 255 255 255 0.0300858 0.984682
-22777.47 812.6799 -1419.242 0.4770871 0.2339959 -0.8471327 201 255 255 255 0.0369916 0.985553
-21668.35 -1230.358 438.4487 -0.2238364 -0.4452401 -0.8669825 228 255 255 255 0.0337374 0.981787
-22263.22 -1867.105 1200.501 0.5048442 -0.3688153 -0.7804535 240 255 255 255 0.0340805 0.970998
-21473.82 -29.48125 -1274.822 0.8398349 0.02031852 -0.5424615 211 255 255 255 0.0250417 0.97348
-22369.6 682.8557 560.9317 -0.2045511 -0.3500968 -0.9141068 200 255 255 255 0.031276 0.972997
-22088.44 699.8832 146.3729 -0.7174137 -0.03919759 -0.6955439 201 255 255 255 0.0313124 0.973882
-23133.21 532.6534 -1263.901 -0.7487476 0.6520075 -0.1194289 204 255 255 255 0.0358752 0.990332
-22972.78 1099.019 259.6066 -0.05102924 0.931914 -0.3590716 194 255 255 255 0.0340805 0.972997
-22973.18 704.9195 -1488.459 0.1852068 0.9084044 -0.3748332 202 255 255 255 0.0332391 0.976729
-23053.38 1265.607 847.2553 0.4861204 0.3639067 -0.7945181 190 255 255 255 0.0357036 0.967914
-22972.78 1099.019 259.6066 -0.05102924 0.931914 -0.3590716 194 255 255 255 0.0360593 0.969169
-23018.34 1699.946 794.8892 0.1282663 0.8889233 -0.4397306 184 255 255 255 0.0347762 0.968026
-21655.29 167.7102 -1215.464 0.6961663 0.4590489 -0.55193 209 255 255 255 0.0246543 0.973354
-24134.07 -1968.091 1200.501 -0.6093415 -0.5619264 -0.5594119 241 255 255 255 0.0226422 0.971
-23676.52 -692.4041 -1847.92 -0.9586431 -0.04127762 -0.2816017 217 255 255 255 0.0176615 0.976547
-22497.59 418.632 417.8788 0.05918026 0.309088 -0.9491904 204 255 255 255 0.0307119 0.973302
-21996.07 1089.563 -166.6904 -0.0724301 0.6984139 -0.7120196 196 255 255 255 0.0364005 0.982879
-23400.43 -470.3905 -2942.733 -0.06065661 0.1031692 -0.9928126 214 255 255 255 0.0263565 0.98966
-21815.07 -95.88832 -1768.631 -0.009263163 -0.2741622 -0.9616389 212 255 255 255 0.0243132 0.974535
-22301.77 -723.5041 1200.5 0.1286906 -0.2889696 -0.9486492 222 255 255 255 0.0311249 0.978353
-22536.88 -244.7618 696.4484 0.3184015 -0.5812196 -0.7488686 213 255 255 255 0.0316268 0.979418
-23949.09 -815.9241 -456.5496 -0.9281946 -0.2926437 -0.2298141 220 255 255 255 0.0222473 0.974535
-24772.73 1050.609 1200.5 -9.775268e-07 4.634691e-07 -1 191 255 255 255 0.0363663 0.975566
-22497.59 418.632 417.8788 0.05918026 0.309088 -0.9491904 204 255 255 255 0.018379 0.968984
-21593.8 -415.0756 -917.1763 0.207629 -0.9337364 -0.2915932 215 255 255 255 0.0296134 0.982864
-21714.37 -570.3132 -80.814 -0.2418576 -0.9337716 -0.263772 218 255 255 255 0.0298707 0.981078
-21996.07 1089.563 -166.6904 -0.0724301 0.6984139 -0.7120196 196 255 255 255 0.0198255 0.977341
-23304.08 875.8579 -66.56992 0.1458834 0.6529511 -0.7432179 198 255 255 255 0.0336041 0.973693
-22369.6 682.8557 560.9317 -0.2045511 -0.3500968 -0.9141068 200 255 255 255 0.0210145 0.982179
-21377.53 -495.0753 113.2509 0.6356295 -0.6671814 -0.3883866 217 255 255 255 0.02655 0.974535
-20650.9 -1047.162 880.2896 0.7997441 -0.3197149 -0.5081257 227 255 255 255 0.0277288 0.972897
-22620.9 1097.212 -626.7515 0.3473918 0.8340098 -0.4286568 197 255 255 255 0.0149415 0.971536
-23847.23 -421.431 -507.4106 -0.3357341 0.9080762 -0.2503604 215 255 255 255 0.0173306 0.985132
-21996.07 1089.563 -166.6904 -0.0724301 0.6984139 -0.7120196 196 255 255 255 0.0321444 0.97455
-20529.75 -1024.25 1200.501 0.8824348 -0.2158265 -0.4180045 228 255 255 255 0.0276594 0.971847
-23304.08 875.8579 -66.56992 0.1458834 0.6529511 -0.7432179 198 255 255 255 0.0292308 0.983519
-22262.74 -409.4647 488.715 -0.5355632 -0.7657987 -0.3559837 216 255 255 255 0.016611 0.968833
-22263.53 170.5284 336.3351 -0.3184048 0.4882067 -0.8125716 208 255 255 255 0.0368682 0.973747
-22188.99 -39.27128 -336.0438 -0.8992418 -0.3483395 -0.2646201 211 255 255 255 0.0370273 0.975183
-22497.59 418.632 417.8788 0.05918026 0.309088 -0.9491904 204 255 255 255 0.0363685 0.973573
-23506.49 1243.653 -516.3187 0.5839456 0.4541371 -0.6728798 194 255 255 255 0.0239306 0.969042
-24460.74 1360.194 1200.5 -0.4425585 0.8471038 -0.294206 186 255 255 255 0.0370273 0.97559
-21980.61 -700.2579 904.6326 -0.6726204 -0.4078836 -0.6174243 221 255 255 255 0.0304392 0.978974
-21042.17 -1570.916 1200.501 0.3765225 -0.756689 -0.5344648 236 255 255 255 0.0288469 0.97223
-22226.78 -1356.268 1049.539 0.1871977 -0.2791163 -0.941834 232 255 255 255 0.0320879 0.967932
-23053.38 1265.607 847.2553 0.4861204 0.3639067 -0.7945181 190 255 255 255 0.0153011 0.968389
-23018.34 1699.946 794.8892 0.1282663 0.8889233 -0.4397306 184 255 255 255 0.0361205 0.985936
-21815.07 -95.88832 -1768.631 -0.009263163 -0.2741622 -0.9616389 212 255 255 255 0.0296134 0.977971
-22188.99 -39.27128 -336.0438 -0.8992418 -0.3483395 -0.2646201 211 255 255 255 0.0297342 0.974912
-20858.99 -782.8619 545.0518 0.7233458 0.0884076 -0.6848029 222 255 255 255 0.0257301 0.979469
-21668.35 -1230.358 438.4487 -0.2238364 -0.4452401 -0.8669825 228 255 255 255 0.0240021 0.980424
-21718.12 -742.2796 449.7805 -0.4354039 -0.6199564 -0.6527461 221 255 255 255 0.0238959 0.979382
-20858.99 -782.8619 545.0518 0.7233458 0.0884076 -0.6848029 222 255 255 255 0.0320094 0.98156
-24071.09 -2076.613 1200.501 -0.4206757 -0.7805327 -0.462386 243 255 255 255 0.0292308 0.974917
-22620.9 1097.212 -626.7515 0.3473918 0.8340098 -0.4286568 197 255 255 255 0.0153734 0.980822
-23304.08 875.8579 -66.56992 0.1458834 0.6529511 -0.7432179 198 255 255 255 0.0298077 0.967916
-21091.72 868.6807 718.8977 0.6697686 0.673804 -0.3120871 198 255 255 255 0.0258575 0.969224
3 0 1 2 
3 3 4 5 
3 6 7 8 
3 9 6 10 
3 11 12 13 
3 14 15 16 
3 17 18 19 
3 20 21 22 
3 140 23 24 
3 141 140 24 
3 25 26 27 
3 22 142 28 
3 29 30 15 
3 31 143 141 
3 32 33 144 
3 34 35 36 
3 145 10 37 
3 38 39 40 
3 41 42 43 
3 7 44 8 
3 45 46 47 
3 48 49 50 
3 51 52 53 
3 146 54 24 
3 55 40 147 
3 148 56 57 
3 149 58 150 
3 59 60 61 
3 58 62 63 
3 64 65 19 
3 66 30 29 
3 151 32 144 
3 67 68 69 
3 43 152 70 
3 153 71 154 
3 72 73 4 
3 74 155 75 
3 156 76 77 
3 78 79 80 
3 81 157 82 
3 83 84 41 
3 31 85 143 
3 86 158 87 
3 88 159 89 
3 90 91 92 
3 160 161 91 
3 84 93 54 
3 162 29 163 
3 164 94 165 
3 0 2 95 
3 166 96 167 
3 167 52 51 
3 84 54 42 
3 168 38 97 
3 4 98 5 
3 99 155 74 
3 9 0 95 
3 157 169 49 
3 170 6 8 
3 7 11 13 
3 100 101 171 
3 172 173 60 
3 102 174 175 
3 101 103 104 
3 105 176 33 
3 106 177 178 
3 43 42 152 
3 179 107 180 
3 30 108 181 
3 3 5 109 
3 92 91 110 
3 87 158 182 
3 28 142 3 
3 142 111 4 
3 112 89 183 
3 77 76 184 
3 113 88 89 
3 6 95 7 
3 185 186 187 
3 188 114 115 
3 109 116 28 
3 189 190 156 
3 117 41 118 
3 188 119 114 
3 191 107 179 
3 22 28 116 
3 84 42 41 
3 192 193 120 
3 121 194 158 
3 191 179 195 
3 7 13 44 
3 86 121 158 
3 196 118 197 
3 179 180 198 
3 199 122 200 
3 201 202 203 
3 164 15 94 
3 123 124 204 
3 205 125 206 
3 47 46 207 
3 126 208 127 
3 128 20 22 
3 209 149 210 
3 129 211 204 
3 48 121 86 
3 48 82 49 
3 204 212 123 
3 213 214 130 
3 124 131 129 
3 74 75 215 
3 54 31 141 
3 15 216 94 
3 217 218 219 
3 38 40 97 
3 220 97 221 
3 222 223 12 
3 84 132 93 
3 118 43 197 
3 144 33 176 
3 156 190 76 
3 117 83 41 
3 224 133 225 
3 132 61 85 
3 85 60 143 
3 226 9 10 
3 124 129 204 
3 132 31 93 
3 48 50 121 
3 54 141 24 
3 225 133 227 
3 150 58 63 
3 228 229 230 
3 202 231 203 
3 232 233 234 
3 235 25 27 
3 236 237 134 
3 49 169 50 
3 35 238 36 
3 99 74 239 
3 240 241 242 
3 135 243 244 
3 50 194 121 
3 88 136 159 
3 207 46 245 
3 103 246 104 
3 218 199 200 
3 159 136 247 
3 145 226 10 
3 135 137 243 
3 57 56 248 
3 25 99 26 
3 8 138 125 
3 61 60 85 
3 236 249 250 
3 239 74 215 
3 14 163 15 
3 90 160 91 
3 224 251 133 
3 252 253 130 
3 254 255 256 
3 128 22 116 
3 57 248 257 
3 100 103 101 
3 188 258 119 
3 122 259 200 
3 249 236 260 
3 261 45 47 
3 94 216 165 
3 40 262 147 
3 257 248 263 
3 137 264 265 
3 197 43 70 
3 113 89 112 
3 266 188 115 
3 193 267 120 
3 253 213 130 
3 106 178 268 
3 95 11 7 
3 125 138 139 
3 269 270 135 
3 34 36 271 
3 130 214 272 
3 210 149 150 
3 15 30 216 
3 142 4 3 
3 196 117 118 
3 117 196 273 
3 95 222 11 
3 97 40 55 
3 93 31 54 
3 67 69 274 
3 275 69 68 
3 276 233 232 
3 11 222 12 
3 85 31 132 
3 37 10 277 
3 278 236 250 
3 205 170 125 
3 129 279 211 
3 280 97 220 
3 218 200 219 
3 236 134 260 
3 281 177 106 
3 82 157 49 
3 282 283 284 
3 9 95 6 
3 285 202 201 
3 192 120 286 
3 30 181 216 
3 108 30 66 
3 270 287 135 
3 96 52 167 
3 28 3 109 
3 163 29 15 
3 61 132 84 
3 125 170 8 
3 275 68 288 
3 185 289 186 
3 234 233 290 
3 291 224 225 
3 97 55 221 
3 137 287 264 
3 292 293 237 
3 135 287 137 
3 111 72 4 
3 237 293 134 
3 294 295 296 
3 297 103 100 
3 125 139 206 
3 18 64 19 
3 118 41 43 
3 298 181 108 
3 194 299 158 
3 99 239 26 
3 279 129 131 
3 269 135 244 
3 42 54 152 
3 60 173 143 
3 300 18 17 
3 301 148 57 
